<svg width="474" height="141" viewBox="0 0 474 141" fill="none" xmlns="http://www.w3.org/2000/svg">
<path d="M74 46C97.7477 46 117 63.9103 117 86.0008C117 108.091 97.7477 126 74 126C50.2523 126 31 108.091 31 86.0008C31 63.9088 50.2523 46.0016 74 46.0016V46Z" fill="#5094F2"/>
<path d="M166.922 93.2812V120H157.922V51.75H183.094C190.562 51.75 196.406 53.6562 200.625 57.4688C204.875 61.2812 207 66.3281 207 72.6094C207 79.2344 204.922 84.3438 200.766 87.9375C196.641 91.5 190.719 93.2812 183 93.2812H166.922ZM166.922 85.9219H183.094C187.906 85.9219 191.594 84.7969 194.156 82.5469C196.719 80.2656 198 76.9844 198 72.7031C198 68.6406 196.719 65.3906 194.156 62.9531C191.594 60.5156 188.078 59.25 183.609 59.1562H166.922V85.9219ZM241.641 77.0625C240.328 76.8438 238.906 76.7344 237.375 76.7344C231.688 76.7344 227.828 79.1562 225.797 84V120H217.125V69.2812H225.562L225.703 75.1406C228.547 70.6094 232.578 68.3438 237.797 68.3438C239.484 68.3438 240.766 68.5625 241.641 69V77.0625ZM269.766 120.938C262.891 120.938 257.297 118.688 252.984 114.188C248.672 109.656 246.516 103.609 246.516 96.0469V94.4531C246.516 89.4219 247.469 84.9375 249.375 81C251.312 77.0312 254 73.9375 257.438 71.7188C260.906 69.4688 264.656 68.3438 268.688 68.3438C275.281 68.3438 280.406 70.5156 284.062 74.8594C287.719 79.2031 289.547 85.4219 289.547 93.5156V97.125H255.188C255.312 102.125 256.766 106.172 259.547 109.266C262.359 112.328 265.922 113.859 270.234 113.859C273.297 113.859 275.891 113.234 278.016 111.984C280.141 110.734 282 109.078 283.594 107.016L288.891 111.141C284.641 117.672 278.266 120.938 269.766 120.938ZM268.688 75.4688C265.188 75.4688 262.25 76.75 259.875 79.3125C257.5 81.8438 256.031 85.4062 255.469 90H280.875V89.3438C280.625 84.9375 279.438 81.5312 277.312 79.125C275.188 76.6875 272.312 75.4688 268.688 75.4688ZM319.969 113.859C323.062 113.859 325.766 112.922 328.078 111.047C330.391 109.172 331.672 106.828 331.922 104.016H340.125C339.969 106.922 338.969 109.688 337.125 112.312C335.281 114.938 332.812 117.031 329.719 118.594C326.656 120.156 323.406 120.938 319.969 120.938C313.062 120.938 307.562 118.641 303.469 114.047C299.406 109.422 297.375 103.109 297.375 95.1094V93.6562C297.375 88.7188 298.281 84.3281 300.094 80.4844C301.906 76.6406 304.5 73.6562 307.875 71.5312C311.281 69.4062 315.297 68.3438 319.922 68.3438C325.609 68.3438 330.328 70.0469 334.078 73.4531C337.859 76.8594 339.875 81.2812 340.125 86.7188H331.922C331.672 83.4375 330.422 80.75 328.172 78.6562C325.953 76.5312 323.203 75.4688 319.922 75.4688C315.516 75.4688 312.094 77.0625 309.656 80.25C307.25 83.4062 306.047 87.9844 306.047 93.9844V95.625C306.047 101.469 307.25 105.969 309.656 109.125C312.062 112.281 315.5 113.859 319.969 113.859ZM358.547 75.4219C362.391 70.7031 367.391 68.3438 373.547 68.3438C384.266 68.3438 389.672 74.3906 389.766 86.4844V120H381.094V86.4375C381.062 82.7812 380.219 80.0781 378.562 78.3281C376.938 76.5781 374.391 75.7031 370.922 75.7031C368.109 75.7031 365.641 76.4531 363.516 77.9531C361.391 79.4531 359.734 81.4219 358.547 83.8594V120H349.875V48H358.547V75.4219ZM434.062 114.984C430.688 118.953 425.734 120.938 419.203 120.938C413.797 120.938 409.672 119.375 406.828 116.25C404.016 113.094 402.594 108.438 402.562 102.281V69.2812H411.234V102.047C411.234 109.734 414.359 113.578 420.609 113.578C427.234 113.578 431.641 111.109 433.828 106.172V69.2812H442.5V120H434.25L434.062 114.984Z" fill="black"/>
<path d="M65 98.2C63 98.2 61.4333 97.4333 60.3 95.9C59.2333 94.3667 58.7 92.1333 58.7 89.2C58.7 85.2 59.6 81.7333 61.4 78.8C63.2 75.8667 65.8333 73.4 69.3 71.4L71.7 75.3C69.1667 76.9667 67.2667 78.7667 66 80.7C64.7333 82.5667 64.1 84.9 64.1 87.7C64.3 87.6333 64.6 87.6 65 87.6C66.3333 87.6 67.5333 88.0333 68.6 88.9C69.7333 89.7667 70.3 91.0333 70.3 92.7C70.3 94.4333 69.8 95.8 68.8 96.8C67.8 97.7333 66.5333 98.2 65 98.2ZM82.6 98.2C80.6 98.2 79.0333 97.4333 77.9 95.9C76.8333 94.3667 76.3 92.1333 76.3 89.2C76.3 85.2 77.2 81.7333 79 78.8C80.8 75.8667 83.4333 73.4 86.9 71.4L89.3 75.3C86.7667 76.9667 84.8667 78.7667 83.6 80.7C82.3333 82.5667 81.7 84.9 81.7 87.7C81.9 87.6333 82.2 87.6 82.6 87.6C83.9333 87.6 85.1333 88.0333 86.2 88.9C87.3333 89.7667 87.9 91.0333 87.9 92.7C87.9 94.4333 87.4 95.8 86.4 96.8C85.4 97.7333 84.1333 98.2 82.6 98.2Z" fill="white"/>
<path d="M60.3 95.9L59.4791 96.4711L59.4873 96.4828L59.4958 96.4944L60.3 95.9ZM61.4 78.8L60.5477 78.277L61.4 78.8ZM69.3 71.4L70.1517 70.8759L69.6422 70.0481L68.8003 70.5338L69.3 71.4ZM71.7 75.3L72.2496 76.1354L73.0601 75.6022L72.5517 74.7759L71.7 75.3ZM66 80.7L66.8275 81.2615L66.832 81.2548L66.8365 81.248L66 80.7ZM64.1 87.7H63.1V89.0874L64.4162 88.6487L64.1 87.7ZM68.6 88.9L67.9694 89.6761L67.9808 89.6854L67.9925 89.6944L68.6 88.9ZM68.8 96.8L69.4823 97.5311L69.4949 97.5193L69.5071 97.5071L68.8 96.8ZM77.9 95.9L77.0791 96.4711L77.0873 96.4828L77.0958 96.4944L77.9 95.9ZM79 78.8L78.1477 78.277L79 78.8ZM86.9 71.4L87.7517 70.8759L87.2422 70.0481L86.4003 70.5338L86.9 71.4ZM89.3 75.3L89.8496 76.1354L90.6601 75.6022L90.1517 74.7759L89.3 75.3ZM83.6 80.7L84.4275 81.2615L84.432 81.2548L84.4365 81.248L83.6 80.7ZM81.7 87.7H80.7V89.0874L82.0162 88.6487L81.7 87.7ZM86.2 88.9L85.5694 89.6761L85.5808 89.6854L85.5926 89.6944L86.2 88.9ZM86.4 96.8L87.0823 97.5311L87.0949 97.5193L87.1071 97.5071L86.4 96.8ZM65 97.2C63.299 97.2 62.0384 96.5695 61.1042 95.3056L59.4958 96.4944C60.8283 98.2971 62.701 99.2 65 99.2V97.2ZM61.1209 95.3289C60.2201 94.034 59.7 92.0369 59.7 89.2H57.7C57.7 92.2297 58.2466 94.6993 59.4791 96.4711L61.1209 95.3289ZM59.7 89.2C59.7 85.3542 60.5637 82.0749 62.2523 79.323L60.5477 78.277C58.6363 81.3918 57.7 85.0458 57.7 89.2H59.7ZM62.2523 79.323C63.952 76.5532 66.4537 74.1966 69.7997 72.2662L68.8003 70.5338C65.213 72.6034 62.448 75.1801 60.5477 78.277L62.2523 79.323ZM68.4483 71.9241L70.8483 75.8241L72.5517 74.7759L70.1517 70.8759L68.4483 71.9241ZM71.1504 74.4646C68.5368 76.1841 66.5246 78.0745 65.1635 80.152L66.8365 81.248C68.0087 79.4588 69.7966 77.7493 72.2496 76.1354L71.1504 74.4646ZM65.1725 80.1385C63.7689 82.2069 63.1 84.7484 63.1 87.7H65.1C65.1 85.0516 65.6977 82.9264 66.8275 81.2615L65.1725 80.1385ZM64.4162 88.6487C64.4599 88.6341 64.6292 88.6 65 88.6V86.6C64.5708 86.6 64.1401 86.6325 63.7838 86.7513L64.4162 88.6487ZM65 88.6C66.0961 88.6 67.075 88.9494 67.9694 89.6761L69.2306 88.1239C67.9916 87.1172 66.5706 86.6 65 86.6V88.6ZM67.9925 89.6944C68.835 90.3386 69.3 91.2856 69.3 92.7H71.3C71.3 90.781 70.6317 89.1948 69.2075 88.1056L67.9925 89.6944ZM69.3 92.7C69.3 94.2317 68.8647 95.3211 68.0929 96.0929L69.5071 97.5071C70.7353 96.2789 71.3 94.6349 71.3 92.7H69.3ZM68.1177 96.0689C67.3257 96.8081 66.3132 97.2 65 97.2V99.2C66.7535 99.2 68.2743 98.6586 69.4823 97.5311L68.1177 96.0689ZM82.6 97.2C80.899 97.2 79.6384 96.5695 78.7042 95.3056L77.0958 96.4944C78.4283 98.2971 80.301 99.2 82.6 99.2V97.2ZM78.7209 95.3289C77.8201 94.034 77.3 92.0369 77.3 89.2H75.3C75.3 92.2297 75.8466 94.6993 77.0791 96.4711L78.7209 95.3289ZM77.3 89.2C77.3 85.3542 78.1637 82.0749 79.8523 79.323L78.1477 78.277C76.2363 81.3918 75.3 85.0458 75.3 89.2H77.3ZM79.8523 79.323C81.552 76.5532 84.0537 74.1966 87.3997 72.2662L86.4003 70.5338C82.813 72.6034 80.048 75.1801 78.1477 78.277L79.8523 79.323ZM86.0483 71.9241L88.4483 75.8241L90.1517 74.7759L87.7517 70.8759L86.0483 71.9241ZM88.7504 74.4646C86.1368 76.1841 84.1246 78.0745 82.7635 80.152L84.4365 81.248C85.6087 79.4588 87.3966 77.7493 89.8496 76.1354L88.7504 74.4646ZM82.7725 80.1385C81.3689 82.2069 80.7 84.7484 80.7 87.7H82.7C82.7 85.0516 83.2977 82.9264 84.4275 81.2615L82.7725 80.1385ZM82.0162 88.6487C82.0599 88.6341 82.2292 88.6 82.6 88.6V86.6C82.1708 86.6 81.7401 86.6325 81.3838 86.7513L82.0162 88.6487ZM82.6 88.6C83.6961 88.6 84.675 88.9494 85.5694 89.6761L86.8306 88.1239C85.5916 87.1172 84.1706 86.6 82.6 86.6V88.6ZM85.5926 89.6944C86.435 90.3386 86.9 91.2856 86.9 92.7H88.9C88.9 90.781 88.2317 89.1948 86.8075 88.1056L85.5926 89.6944ZM86.9 92.7C86.9 94.2317 86.4647 95.3211 85.6929 96.0929L87.1071 97.5071C88.3353 96.2789 88.9 94.6349 88.9 92.7H86.9ZM85.7177 96.0689C84.9257 96.8081 83.9132 97.2 82.6 97.2V99.2C84.3535 99.2 85.8743 98.6586 87.0823 97.5311L85.7177 96.0689Z" fill="white"/>
<path d="M60.3 95.9L59.4791 96.4711L59.4873 96.4828L59.4958 96.4944L60.3 95.9ZM61.4 78.8L60.5477 78.277L61.4 78.8ZM69.3 71.4L70.1517 70.8759L69.6422 70.0481L68.8003 70.5338L69.3 71.4ZM71.7 75.3L72.2496 76.1354L73.0601 75.6022L72.5517 74.7759L71.7 75.3ZM66 80.7L66.8275 81.2615L66.832 81.2548L66.8365 81.248L66 80.7ZM64.1 87.7H63.1V89.0874L64.4162 88.6487L64.1 87.7ZM68.6 88.9L67.9694 89.6761L67.9808 89.6854L67.9925 89.6944L68.6 88.9ZM68.8 96.8L69.4823 97.5311L69.4949 97.5193L69.5071 97.5071L68.8 96.8ZM77.9 95.9L77.0791 96.4711L77.0873 96.4828L77.0958 96.4944L77.9 95.9ZM79 78.8L78.1477 78.277L79 78.8ZM86.9 71.4L87.7517 70.8759L87.2422 70.0481L86.4003 70.5338L86.9 71.4ZM89.3 75.3L89.8496 76.1354L90.6601 75.6022L90.1517 74.7759L89.3 75.3ZM83.6 80.7L84.4275 81.2615L84.432 81.2548L84.4365 81.248L83.6 80.7ZM81.7 87.7H80.7V89.0874L82.0162 88.6487L81.7 87.7ZM86.2 88.9L85.5694 89.6761L85.5808 89.6854L85.5926 89.6944L86.2 88.9ZM86.4 96.8L87.0823 97.5311L87.0949 97.5193L87.1071 97.5071L86.4 96.8ZM65 97.2C63.299 97.2 62.0384 96.5695 61.1042 95.3056L59.4958 96.4944C60.8283 98.2971 62.701 99.2 65 99.2V97.2ZM61.1209 95.3289C60.2201 94.034 59.7 92.0369 59.7 89.2H57.7C57.7 92.2297 58.2466 94.6993 59.4791 96.4711L61.1209 95.3289ZM59.7 89.2C59.7 85.3542 60.5637 82.0749 62.2523 79.323L60.5477 78.277C58.6363 81.3918 57.7 85.0458 57.7 89.2H59.7ZM62.2523 79.323C63.952 76.5532 66.4537 74.1966 69.7997 72.2662L68.8003 70.5338C65.213 72.6034 62.448 75.1801 60.5477 78.277L62.2523 79.323ZM68.4483 71.9241L70.8483 75.8241L72.5517 74.7759L70.1517 70.8759L68.4483 71.9241ZM71.1504 74.4646C68.5368 76.1841 66.5246 78.0745 65.1635 80.152L66.8365 81.248C68.0087 79.4588 69.7966 77.7493 72.2496 76.1354L71.1504 74.4646ZM65.1725 80.1385C63.7689 82.2069 63.1 84.7484 63.1 87.7H65.1C65.1 85.0516 65.6977 82.9264 66.8275 81.2615L65.1725 80.1385ZM64.4162 88.6487C64.4599 88.6341 64.6292 88.6 65 88.6V86.6C64.5708 86.6 64.1401 86.6325 63.7838 86.7513L64.4162 88.6487ZM65 88.6C66.0961 88.6 67.075 88.9494 67.9694 89.6761L69.2306 88.1239C67.9916 87.1172 66.5706 86.6 65 86.6V88.6ZM67.9925 89.6944C68.835 90.3386 69.3 91.2856 69.3 92.7H71.3C71.3 90.781 70.6317 89.1948 69.2075 88.1056L67.9925 89.6944ZM69.3 92.7C69.3 94.2317 68.8647 95.3211 68.0929 96.0929L69.5071 97.5071C70.7353 96.2789 71.3 94.6349 71.3 92.7H69.3ZM68.1177 96.0689C67.3257 96.8081 66.3132 97.2 65 97.2V99.2C66.7535 99.2 68.2743 98.6586 69.4823 97.5311L68.1177 96.0689ZM82.6 97.2C80.899 97.2 79.6384 96.5695 78.7042 95.3056L77.0958 96.4944C78.4283 98.2971 80.301 99.2 82.6 99.2V97.2ZM78.7209 95.3289C77.8201 94.034 77.3 92.0369 77.3 89.2H75.3C75.3 92.2297 75.8466 94.6993 77.0791 96.4711L78.7209 95.3289ZM77.3 89.2C77.3 85.3542 78.1637 82.0749 79.8523 79.323L78.1477 78.277C76.2363 81.3918 75.3 85.0458 75.3 89.2H77.3ZM79.8523 79.323C81.552 76.5532 84.0537 74.1966 87.3997 72.2662L86.4003 70.5338C82.813 72.6034 80.048 75.1801 78.1477 78.277L79.8523 79.323ZM86.0483 71.9241L88.4483 75.8241L90.1517 74.7759L87.7517 70.8759L86.0483 71.9241ZM88.7504 74.4646C86.1368 76.1841 84.1246 78.0745 82.7635 80.152L84.4365 81.248C85.6087 79.4588 87.3966 77.7493 89.8496 76.1354L88.7504 74.4646ZM82.7725 80.1385C81.3689 82.2069 80.7 84.7484 80.7 87.7H82.7C82.7 85.0516 83.2977 82.9264 84.4275 81.2615L82.7725 80.1385ZM82.0162 88.6487C82.0599 88.6341 82.2292 88.6 82.6 88.6V86.6C82.1708 86.6 81.7401 86.6325 81.3838 86.7513L82.0162 88.6487ZM82.6 88.6C83.6961 88.6 84.675 88.9494 85.5694 89.6761L86.8306 88.1239C85.5916 87.1172 84.1706 86.6 82.6 86.6V88.6ZM85.5926 89.6944C86.435 90.3386 86.9 91.2856 86.9 92.7H88.9C88.9 90.781 88.2317 89.1948 86.8075 88.1056L85.5926 89.6944ZM86.9 92.7C86.9 94.2317 86.4647 95.3211 85.6929 96.0929L87.1071 97.5071C88.3353 96.2789 88.9 94.6349 88.9 92.7H86.9ZM85.7177 96.0689C84.9257 96.8081 83.9132 97.2 82.6 97.2V99.2C84.3535 99.2 85.8743 98.6586 87.0823 97.5311L85.7177 96.0689Z" fill="url(#paint0_linear)"/>
<defs>
<linearGradient id="paint0_linear" x1="79.2067" y1="42" x2="79.2067" y2="138.365" gradientUnits="userSpaceOnUse">
<stop stop-color="white"/>
<stop offset="1" stop-color="white" stop-opacity="0"/>
</linearGradient>
</defs>
</svg>
